<svg xmlns="http://www.w3.org/2000/svg" viewBox="0 0 108 108" width="108" height="108">
  <defs>
    <linearGradient id="bg" x1="0" y1="0" x2="108" y2="108" gradientUnits="userSpaceOnUse">
      <stop stop-color="#182230" />
      <stop offset="1" stop-color="#0c1219" />
    </linearGradient>
  </defs>
  <rect width="108" height="108" rx="24" fill="url(#bg)" />
  <!-- Signal arcs (left) -->
  <path d="M34,40 A22,22 0 0 0 34,68" stroke="#FFB74A" stroke-width="4" stroke-linecap="round" fill="none" />
  <path d="M26,32 A33,33 0 0 0 26,76" stroke="#FFB74A" stroke-opacity="0.25" stroke-width="4" stroke-linecap="round" fill="none" />
  <!-- Signal arcs (right) -->
  <path d="M74,40 A22,22 0 0 1 74,68" stroke="#FFB74A" stroke-width="4" stroke-linecap="round" fill="none" />
  <path d="M82,32 A33,33 0 0 1 82,76" stroke="#FFB74A" stroke-opacity="0.25" stroke-width="4" stroke-linecap="round" fill="none" />
  <!-- Microphone glyph -->
  <g transform="translate(27,26) scale(2.25)">
    <path fill="#FFB74A" d="M12,14c1.66,0 3,-1.34 3,-3V5c0,-1.66 -1.34,-3 -3,-3S9,3.34 9,5v6C9,12.66 10.34,14 12,14zM17,11c0,2.76 -2.24,5 -5,5s-5,-2.24 -5,-5H5c0,3.53 2.61,6.43 6,6.92V21h2v-3.08c3.39,-0.49 6,-3.39 6,-6.92H17z" />
  </g>
</svg>